<svg width="431" height="214" viewBox="0 0 431 214" fill="none" xmlns="http://www.w3.org/2000/svg">
<path d="M123 109H99.2531L99.0013 102.133C98.9904 101.835 99.0482 101.539 99.1708 101.264C99.2933 100.989 99.4777 100.743 99.7112 100.542C99.9447 100.34 100.222 100.189 100.523 100.098C100.825 100.007 101.144 99.9791 101.458 100.015L115.277 101.607H115.279C117.328 101.612 119.291 102.381 120.738 103.745C122.185 105.109 122.999 106.957 123 108.884V109Z" fill="#6C63FF"/>
<path d="M112.4 84H96.6C96.3899 83.9999 96.1818 84.0413 95.9876 84.1217C95.7935 84.2021 95.6171 84.3199 95.4685 84.4685C95.3199 84.6171 95.2021 84.7935 95.1217 84.9876C95.0413 85.1818 94.9999 85.3899 95 85.6V101.4C94.9999 101.61 95.0413 101.818 95.1217 102.012C95.2021 102.207 95.3199 102.383 95.4685 102.532C95.6171 102.68 95.7935 102.798 95.9876 102.878C96.1818 102.959 96.3899 103 96.6 103H112.4C112.61 103 112.818 102.959 113.012 102.878C113.206 102.798 113.383 102.68 113.531 102.532C113.68 102.383 113.798 102.207 113.878 102.012C113.959 101.818 114 101.61 114 101.4V85.6C114 85.3899 113.959 85.1818 113.878 84.9876C113.798 84.7935 113.68 84.6171 113.531 84.4685C113.383 84.3199 113.206 84.2021 113.012 84.1217C112.818 84.0413 112.61 83.9999 112.4 84V84Z" fill="#CCCCCC"/>
<path d="M108.557 95.6679L100.727 96.9721C100.263 97.0491 99.7814 96.9652 99.3891 96.7391C98.9968 96.5129 98.7254 96.1629 98.6345 95.7658L98.0326 93.122C97.9427 92.7247 98.0407 92.3131 98.3051 91.9776C98.5695 91.642 98.9787 91.4099 99.443 91.3321L107.273 90.0279C107.737 89.9509 108.219 90.0348 108.611 90.2609C109.003 90.4871 109.275 90.8371 109.366 91.2342L109.967 93.878C110.057 94.2753 109.959 94.6869 109.695 95.0224C109.431 95.358 109.021 95.5901 108.557 95.6679Z" fill="#3F3D56"/>
<path d="M107.651 92.8306L101.514 93.9923C101.401 94.0135 101.285 93.9906 101.19 93.9284C101.095 93.8663 101.03 93.7701 101.008 93.661C100.986 93.5519 101.01 93.4388 101.074 93.3466C101.138 93.2544 101.237 93.1907 101.349 93.1694L107.486 92.0077C107.599 91.9865 107.715 92.0095 107.81 92.0716C107.905 92.1337 107.97 92.2299 107.992 92.339C108.014 92.4481 107.99 92.5612 107.926 92.6534C107.862 92.7456 107.763 92.8093 107.651 92.8306V92.8306Z" fill="white"/>
<path d="M105.741 94.1542L103.382 94.9893C103.298 95.0188 103.212 94.9869 103.141 94.9005C103.071 94.8142 103.022 94.6805 103.006 94.5289C102.99 94.3772 103.007 94.2201 103.055 94.092C103.102 93.9639 103.176 93.8753 103.259 93.8458L105.618 93.0107C105.66 92.9961 105.702 92.9964 105.743 93.0117C105.785 93.0269 105.824 93.0567 105.859 93.0995C105.894 93.1422 105.923 93.197 105.947 93.2608C105.97 93.3246 105.986 93.3961 105.994 93.4711C106.002 93.5462 106.002 93.6234 105.994 93.6984C105.985 93.7734 105.969 93.8446 105.945 93.908C105.922 93.9715 105.892 94.0258 105.857 94.0681C105.821 94.1103 105.782 94.1396 105.741 94.1542Z" fill="white"/>
<path d="M114 85.7297V88H95V85.7297C94.9999 85.5026 95.0413 85.2776 95.1217 85.0677C95.2021 84.8578 95.3199 84.6671 95.4685 84.5065C95.6171 84.3459 95.7935 84.2184 95.9876 84.1315C96.1818 84.0446 96.3899 83.9999 96.6 84H112.4C112.61 83.9999 112.818 84.0446 113.012 84.1315C113.207 84.2184 113.383 84.3459 113.531 84.5065C113.68 84.6671 113.798 84.8578 113.878 85.0677C113.959 85.2776 114 85.5026 114 85.7297Z" fill="#B3B3B3"/>
<path d="M153.874 88.5808C153.757 88.2161 153.56 87.8806 153.296 87.5979C153.031 87.3152 152.707 87.0923 152.344 86.9447C151.981 86.7972 151.59 86.7287 151.197 86.744C150.804 86.7593 150.42 86.8581 150.07 87.0334L127.015 79L126 84.5935L148.981 90.7312C149.324 91.2816 149.862 91.6909 150.494 91.8817C151.126 92.0725 151.808 92.0314 152.411 91.7664C153.014 91.5013 153.496 91.0306 153.766 90.4435C154.035 89.8564 154.074 89.1936 153.874 88.5808V88.5808Z" fill="#FFB8B8"/>
<path opacity="0.2" d="M153.874 88.5808C153.757 88.2161 153.56 87.8806 153.296 87.5979C153.031 87.3152 152.707 87.0923 152.344 86.9447C151.981 86.7972 151.59 86.7287 151.197 86.744C150.804 86.7593 150.42 86.8581 150.07 87.0334L127.015 79L126 84.5935L148.981 90.7312C149.324 91.2816 149.862 91.6909 150.494 91.8817C151.126 92.0725 151.808 92.0314 152.411 91.7664C153.014 91.5013 153.496 91.0306 153.766 90.4435C154.035 89.8564 154.074 89.1936 153.874 88.5808V88.5808Z" fill="black"/>
<path d="M130.923 79.943L128.822 85.2739C128.762 85.4255 128.67 85.5629 128.55 85.6766C128.431 85.7904 128.288 85.8778 128.13 85.9329C127.973 85.988 127.806 86.0096 127.639 85.9961C127.472 85.9826 127.311 85.9344 127.165 85.8548L122.059 83.0635C121.262 82.762 120.62 82.1658 120.275 81.4056C119.93 80.6454 119.909 79.7832 120.217 79.0081C120.525 78.233 121.137 77.6082 121.919 77.2706C122.701 76.9331 123.588 76.9104 124.387 77.2075L130.089 78.4357C130.252 78.4709 130.405 78.5399 130.539 78.6379C130.672 78.736 130.782 78.8607 130.861 79.0038C130.94 79.1468 130.987 79.3048 130.998 79.4668C131.008 79.6289 130.983 79.7913 130.923 79.943V79.943Z" fill="#6C63FF"/>
<path d="M155.4 94L147 97.4962L148.103 101.298C150.233 108.64 150.798 116.288 149.768 123.825V123.825L155.909 125L161 113.113L159.218 99.594L155.4 94Z" fill="#6C63FF"/>
<path d="M171 111C165.608 111 161.213 114.996 161 120H181C180.787 114.996 176.392 111 171 111Z" fill="#3F3D56"/>
<path d="M166.959 111.86C166.683 91.1398 154.238 93.046 154.238 93.046C154.238 93.046 154.471 99.4957 154.583 99.6962C162.513 113.924 149.425 130.604 132.765 127.536C132.451 127.478 132.149 127.419 131.86 127.359C129.749 126.942 127.885 125.777 126.647 124.102C125.41 122.428 124.892 120.369 125.198 118.345C126.839 105.848 118.676 106.069 118.676 106.069H106.741L100.543 100.78C100.324 100.593 100.06 100.46 99.7746 100.392C99.4891 100.324 99.1904 100.324 98.9046 100.391C98.6189 100.458 98.3548 100.59 98.1355 100.777C97.9162 100.963 97.7483 101.197 97.6465 101.459L96.8491 103.511C96.8491 103.511 85.0771 104.674 86.0581 115.604H89.6976C89.6888 115.915 89.7019 116.226 89.7368 116.534L116.899 116.325C118.491 116.313 119.896 117.536 119.903 119.046C119.904 119.413 119.828 119.778 119.678 120.116C119.527 120.455 119.307 120.762 119.029 121.018C118.751 121.274 118.421 121.474 118.059 121.607C117.698 121.739 117.312 121.801 116.924 121.789L112.545 121.651C111.196 127.348 114.507 131.186 118.155 133.598C121.59 135.837 125.666 137.024 129.834 137H141.73C157.181 137 159.879 124.674 159.879 124.674C167.972 121.418 166.959 111.86 166.959 111.86Z" fill="#3F3D56"/>
<path d="M170.5 144C177.956 144 184 138.18 184 131C184 123.82 177.956 118 170.5 118C163.044 118 157 123.82 157 131C157 138.18 163.044 144 170.5 144Z" fill="#3F3D56"/>
<path d="M170.5 134C172.433 134 174 132.657 174 131C174 129.343 172.433 128 170.5 128C168.567 128 167 129.343 167 131C167 132.657 168.567 134 170.5 134Z" fill="white"/>
<path d="M101 144C109.837 144 117 137.284 117 129C117 120.716 109.837 114 101 114C92.1634 114 85 120.716 85 129C85 137.284 92.1634 144 101 144Z" fill="#3F3D56"/>
<path d="M101 133C103.209 133 105 131.209 105 129C105 126.791 103.209 125 101 125C98.7909 125 97 126.791 97 129C97 131.209 98.7909 133 101 133Z" fill="white"/>
<path d="M147.041 98L144.201 90.4142C144.053 90.0189 143.985 89.5987 144.003 89.1778C144.02 88.7568 144.121 88.3433 144.301 87.9608C144.48 87.5783 144.735 87.2344 145.049 86.9487C145.364 86.6629 145.733 86.4409 146.135 86.2953L154.276 83.3477C154.984 83.0916 155.735 82.9749 156.489 83.0045C157.242 83.034 157.982 83.2092 158.666 83.5199C159.35 83.8307 159.966 84.271 160.477 84.8156C160.988 85.3603 161.385 85.9986 161.646 86.6942C161.881 87.3186 162.001 87.9791 162 88.6448C161.997 89.4901 161.802 90.3241 161.431 91.0862C161.059 91.8483 160.519 92.5193 159.85 93.0505C159.367 93.4315 158.825 93.7326 158.243 93.9418L147.041 98Z" fill="#3F3D56"/>
<path d="M162 88.6163C161.999 89.4578 161.821 90.2884 161.479 91.047C161.137 91.8056 160.639 92.473 160.022 93C159.075 92.7345 158.195 92.2531 157.441 91.5891C156.687 90.9251 156.078 90.0945 155.657 89.1551C155.235 88.2156 155.011 87.1899 155 86.1491C154.989 85.1083 155.192 84.0775 155.593 83.1283C156.364 82.95 157.163 82.9576 157.931 83.1505C158.699 83.3435 159.417 83.7168 160.031 84.2432C160.646 84.7695 161.141 85.4355 161.482 86.1923C161.823 86.949 162 87.7773 162 88.6163V88.6163Z" fill="#6C63FF"/>
<path d="M88.5 117C90.433 117 92 115.209 92 113C92 110.791 90.433 109 88.5 109C86.567 109 85 110.791 85 113C85 115.209 86.567 117 88.5 117Z" fill="#6C63FF"/>
<path d="M134 127H136.711L138 120L134 120L134 127Z" fill="#FFB8B8"/>
<path d="M133 126L138.497 126H138.497C138.957 126 139.413 126.1 139.838 126.295C140.263 126.49 140.649 126.775 140.974 127.135C141.299 127.494 141.557 127.921 141.733 128.391C141.909 128.861 142 129.365 142 129.874V130L133 130L133 126Z" fill="#2F2E41"/>
<path d="M136.776 124C136.742 124 136.707 123.998 136.673 123.995L132.622 123.707C132.459 123.692 132.301 123.641 132.16 123.557C132.02 123.473 131.901 123.359 131.814 123.223C131.726 123.087 131.671 122.933 131.653 122.773C131.636 122.613 131.656 122.452 131.713 122.301L137.134 110.404C137.173 110.297 137.189 110.185 137.18 110.072C137.172 109.96 137.141 109.851 137.087 109.751C137.034 109.65 136.959 109.561 136.868 109.49C136.777 109.42 136.672 109.369 136.559 109.34C134.01 108.69 127.47 106.956 121.808 104.928C119.383 104.06 117.855 102.804 117.268 101.197C116.494 99.0773 117.639 97.1446 117.688 97.0635L117.727 97L123.054 97.473L128.829 97.9529L141.486 104.583C142.546 105.143 143.352 106.073 143.742 107.187C144.132 108.302 144.078 109.519 143.591 110.596L137.756 123.378C137.672 123.563 137.534 123.72 137.36 123.831C137.186 123.941 136.983 124 136.776 124Z" fill="#2F2E41"/>
<path d="M124 74C127.314 74 130 71.5376 130 68.5C130 65.4624 127.314 63 124 63C120.686 63 118 65.4624 118 68.5C118 71.5376 120.686 74 124 74Z" fill="#FFB8B8"/>
<path d="M132 128H134.711L136 121L132 121L132 128Z" fill="#FFB8B8"/>
<path d="M131 127L137.108 127H137.108C137.619 127 138.125 127.1 138.597 127.295C139.069 127.49 139.499 127.775 139.86 128.135C140.221 128.494 140.508 128.921 140.704 129.391C140.899 129.861 141 130.365 141 130.874V131L131 131L131 127Z" fill="#2F2E41"/>
<path d="M135.508 125C135.473 125 135.437 124.998 135.402 124.995L131.201 124.707C131.031 124.692 130.867 124.641 130.722 124.557C130.576 124.473 130.453 124.359 130.362 124.223C130.271 124.087 130.214 123.933 130.196 123.773C130.178 123.613 130.199 123.452 130.258 123.301L135.88 111.404C135.92 111.297 135.936 111.185 135.928 111.072C135.92 110.96 135.887 110.851 135.831 110.751C135.776 110.65 135.698 110.561 135.604 110.49C135.51 110.42 135.4 110.369 135.284 110.34C132.64 109.69 125.858 107.956 119.987 105.928C117.471 105.06 115.887 103.804 115.278 102.197C114.475 100.077 115.663 98.1446 115.714 98.0635L115.754 98L121.278 98.473L127.268 98.9529L140.393 105.583C141.492 106.143 142.328 107.073 142.732 108.187C143.137 109.302 143.081 110.519 142.576 111.596L136.525 124.378C136.437 124.563 136.295 124.72 136.114 124.831C135.934 124.941 135.723 125 135.508 125Z" fill="#2F2E41"/>
<path d="M126.125 77.0929L119.625 75C119.625 75 115.544 77.9161 117.505 85.15C118.528 88.8831 118.23 92.8235 116.655 96.3864C116.465 96.8273 116.246 97.2568 116 97.6727C116 97.6727 123.25 105.812 130 99.7655L127.375 88.0223C127.375 88.0223 131.5 80.2322 126.125 77.0929Z" fill="#6C63FF"/>
<path d="M124.582 73.943C123.729 72.7423 123.056 71.0773 123.995 69.9349C124.922 68.8072 126.75 68.9733 128.169 68.4743C130.146 67.7793 131.293 65.5945 130.935 63.6379C130.577 61.6813 128.908 60.0593 126.919 59.3956C124.93 58.7319 122.687 58.9478 120.739 59.712C118.341 60.6528 116.284 62.4727 115.421 64.7781C114.559 67.0835 115.02 69.8515 116.809 71.6234C118.728 73.5231 121.738 74.0294 124.524 73.9987" fill="#2F2E41"/>
<path d="M119.185 64.1062C118.092 64.9384 116.425 64.5688 115.251 63.8384C114.078 63.108 113.126 62.068 111.857 61.4954C109.619 60.4859 106.914 61.157 104.736 62.2752C102.558 63.3934 100.628 64.9383 98.3273 65.8158C96.0268 66.6934 93.0913 66.7367 91.3494 65.0798C90.9207 66.2415 90.8856 67.4987 91.249 68.6797C91.6124 69.8608 92.3564 70.9082 93.3797 71.6791C94.403 72.45 95.6556 72.9068 96.9666 72.9872C98.2777 73.0676 99.5833 72.7677 100.705 72.1283C103.226 70.6921 104.618 67.6808 107.445 66.8882C109.01 66.4495 110.69 66.8028 112.271 67.1855C113.852 67.5681 115.501 67.9816 117.096 67.6558C118.692 67.3301 120.184 65.9888 119.981 64.4729L119.185 64.1062Z" fill="#2F2E41"/>
<path d="M152.765 88.2822C152.612 87.9346 152.385 87.6256 152.102 87.377C151.819 87.1285 151.485 86.9464 151.125 86.8435C150.766 86.7407 150.388 86.7196 150.02 86.7818C149.651 86.844 149.3 86.988 148.992 87.2035L126.282 82L126 87.6661L148.412 90.9993C148.801 91.5039 149.358 91.8453 149.977 91.9587C150.596 92.0722 151.234 91.9499 151.771 91.6149C152.307 91.28 152.705 90.7557 152.888 90.1415C153.072 89.5273 153.028 88.8657 152.765 88.2822V88.2822Z" fill="#FFB8B8"/>
<path d="M129.966 82.9213L128.542 88.1839C128.501 88.3336 128.426 88.4736 128.321 88.5944C128.216 88.7151 128.083 88.8138 127.932 88.8836C127.782 88.9535 127.616 88.9929 127.447 88.9991C127.278 89.0054 127.11 88.9783 126.953 88.9199L121.47 86.8706C120.63 86.6777 119.909 86.189 119.464 85.5117C119.02 84.8345 118.888 84.024 119.097 83.2582C119.307 82.4923 119.842 81.8336 120.583 81.4266C121.325 81.0197 122.214 80.8977 123.054 81.0873L128.935 81.5959C129.103 81.6105 129.266 81.658 129.412 81.7352C129.559 81.8124 129.685 81.9175 129.783 82.0433C129.881 82.1691 129.948 82.3126 129.979 82.4641C130.011 82.6157 130.006 82.7716 129.966 82.9213V82.9213Z" fill="#6C63FF"/>
<path d="M150.5 93C151.328 93 152 92.1046 152 91C152 89.8954 151.328 89 150.5 89C149.672 89 149 89.8954 149 91C149 92.1046 149.672 93 150.5 93Z" fill="#6C63FF"/>
<path d="M211.06 119.7C211.62 119.7 212.07 119.88 212.41 120.24C212.75 120.58 212.92 121.04 212.92 121.62V139.38C212.92 139.94 212.76 140.38 212.44 140.7C212.12 141.02 211.7 141.18 211.18 141.18C210.66 141.18 210.25 141.02 209.95 140.7C209.65 140.38 209.5 139.94 209.5 139.38V127.02L204.4 136.68C204.16 137.12 203.9 137.45 203.62 137.67C203.34 137.87 203.01 137.97 202.63 137.97C202.25 137.97 201.92 137.87 201.64 137.67C201.36 137.47 201.1 137.14 200.86 136.68L195.73 127.17V139.38C195.73 139.92 195.57 140.36 195.25 140.7C194.95 141.02 194.54 141.18 194.02 141.18C193.5 141.18 193.09 141.02 192.79 140.7C192.49 140.38 192.34 139.94 192.34 139.38V121.62C192.34 121.04 192.5 120.58 192.82 120.24C193.16 119.88 193.61 119.7 194.17 119.7C194.95 119.7 195.56 120.13 196 120.99L202.66 133.68L209.29 120.99C209.73 120.13 210.32 119.7 211.06 119.7ZM227.405 127.11C227.565 126.75 227.775 126.49 228.035 126.33C228.315 126.15 228.615 126.06 228.935 126.06C229.395 126.06 229.805 126.22 230.165 126.54C230.545 126.84 230.735 127.22 230.735 127.68C230.735 127.9 230.675 128.13 230.555 128.37L222.365 145.53C222.025 146.21 221.495 146.55 220.775 146.55C220.315 146.55 219.905 146.4 219.545 146.1C219.205 145.82 219.035 145.46 219.035 145.02C219.035 144.8 219.095 144.55 219.215 144.27L221.255 139.98L215.675 128.37C215.575 128.17 215.525 127.94 215.525 127.68C215.525 127.22 215.715 126.83 216.095 126.51C216.495 126.19 216.945 126.03 217.445 126.03C217.785 126.03 218.095 126.12 218.375 126.3C218.655 126.46 218.875 126.72 219.035 127.08L223.235 136.35L227.405 127.11Z" fill="black"/>
<path d="M243.781 141.24C241.901 141.24 240.261 140.84 238.861 140.04C237.461 139.24 236.381 138.09 235.621 136.59C234.861 135.07 234.481 133.29 234.481 131.25C234.481 128.91 234.901 126.86 235.741 125.1C236.601 123.34 237.821 121.99 239.401 121.05C240.981 120.09 242.821 119.61 244.921 119.61C246.381 119.61 247.711 119.81 248.911 120.21C250.131 120.61 251.131 121.16 251.911 121.86C252.351 122.18 252.571 122.59 252.571 123.09C252.571 123.43 252.451 123.73 252.211 123.99C251.991 124.25 251.721 124.38 251.401 124.38C251.121 124.38 250.841 124.28 250.561 124.08C249.041 122.82 247.181 122.19 244.981 122.19C242.661 122.19 240.861 123 239.581 124.62C238.301 126.22 237.661 128.44 237.661 131.28C237.661 133.66 238.211 135.49 239.311 136.77C240.431 138.03 242.021 138.66 244.081 138.66C245.061 138.66 246.011 138.5 246.931 138.18C247.871 137.84 248.731 137.37 249.511 136.77C249.791 136.57 250.071 136.47 250.351 136.47C250.671 136.47 250.921 136.59 251.101 136.83C251.301 137.05 251.401 137.33 251.401 137.67C251.401 138.15 251.201 138.55 250.801 138.87C249.961 139.61 248.941 140.19 247.741 140.61C246.541 141.03 245.221 141.24 243.781 141.24ZM260.821 141.21C259.401 141.21 258.161 140.92 257.101 140.34C256.041 139.76 255.221 138.93 254.641 137.85C254.061 136.77 253.771 135.52 253.771 134.1C253.771 132.46 254.071 131.03 254.671 129.81C255.291 128.59 256.151 127.65 257.251 126.99C258.371 126.33 259.661 126 261.121 126C262.561 126 263.811 126.3 264.871 126.9C265.931 127.48 266.751 128.31 267.331 129.39C267.911 130.45 268.201 131.7 268.201 133.14C268.201 134.78 267.891 136.21 267.271 137.43C266.671 138.63 265.811 139.56 264.691 140.22C263.591 140.88 262.301 141.21 260.821 141.21ZM260.851 138.81C262.231 138.81 263.291 138.29 264.031 137.25C264.771 136.21 265.141 134.81 265.141 133.05C265.141 131.55 264.791 130.41 264.091 129.63C263.411 128.83 262.431 128.43 261.151 128.43C259.751 128.43 258.681 128.95 257.941 129.99C257.201 131.03 256.831 132.43 256.831 134.19C256.831 135.71 257.171 136.86 257.851 137.64C258.551 138.42 259.551 138.81 260.851 138.81ZM283.484 126.06C283.944 126.06 284.294 126.19 284.534 126.45C284.794 126.69 284.914 127.05 284.894 127.53L283.904 139.77C283.884 140.19 283.714 140.53 283.394 140.79C283.094 141.03 282.724 141.15 282.284 141.15C281.864 141.15 281.524 141.04 281.264 140.82C281.024 140.58 280.914 140.25 280.934 139.83L281.024 138.78C280.524 139.56 279.854 140.16 279.014 140.58C278.194 141 277.274 141.21 276.254 141.21C274.634 141.21 273.404 140.78 272.564 139.92C271.724 139.04 271.304 137.76 271.304 136.08C271.304 135.72 271.314 135.45 271.334 135.27L271.964 127.53C272.004 127.07 272.174 126.71 272.474 126.45C272.774 126.19 273.144 126.06 273.584 126.06C274.044 126.06 274.404 126.19 274.664 126.45C274.924 126.71 275.034 127.07 274.994 127.53L274.364 135.09L274.334 135.63C274.334 137.71 275.304 138.75 277.244 138.75C278.424 138.75 279.364 138.38 280.064 137.64C280.764 136.9 281.164 135.88 281.264 134.58L281.864 127.53C281.884 127.07 282.044 126.71 282.344 126.45C282.644 126.19 283.024 126.06 283.484 126.06ZM297.024 126.06C297.404 126.02 297.704 126.1 297.924 126.3C298.164 126.5 298.284 126.79 298.284 127.17C298.284 128.09 297.784 128.59 296.784 128.67L295.974 128.76C294.594 128.9 293.564 129.3 292.884 129.96C292.224 130.62 291.844 131.59 291.744 132.87L291.174 139.71C291.134 140.21 290.964 140.58 290.664 140.82C290.364 141.04 289.994 141.15 289.554 141.15C289.114 141.15 288.754 141.03 288.474 140.79C288.214 140.55 288.104 140.19 288.144 139.71L289.134 127.44C289.154 127 289.324 126.66 289.644 126.42C289.964 126.18 290.334 126.06 290.754 126.06C291.154 126.06 291.474 126.18 291.714 126.42C291.954 126.64 292.064 126.97 292.044 127.41L291.954 128.64C292.954 127.1 294.534 126.25 296.694 126.09L297.024 126.06ZM300.541 141.15C300.101 141.15 299.741 141.03 299.461 140.79C299.201 140.55 299.091 140.19 299.131 139.71L300.121 127.47C300.141 127.01 300.311 126.66 300.631 126.42C300.951 126.18 301.321 126.06 301.741 126.06C302.181 126.06 302.531 126.18 302.791 126.42C303.051 126.66 303.171 127.01 303.151 127.47L302.161 139.71C302.121 140.21 301.951 140.58 301.651 140.82C301.351 141.04 300.981 141.15 300.541 141.15ZM302.131 123.12C301.551 123.12 301.091 122.96 300.751 122.64C300.411 122.32 300.241 121.9 300.241 121.38C300.241 120.86 300.411 120.45 300.751 120.15C301.091 119.83 301.551 119.67 302.131 119.67C302.691 119.67 303.141 119.83 303.481 120.15C303.841 120.45 304.021 120.86 304.021 121.38C304.021 121.9 303.851 122.32 303.511 122.64C303.171 122.96 302.711 123.12 302.131 123.12ZM319.536 132.96C319.536 133.36 319.426 133.67 319.206 133.89C319.006 134.09 318.726 134.19 318.366 134.19H309.036C309.056 135.67 309.436 136.82 310.176 137.64C310.916 138.44 311.986 138.84 313.386 138.84C314.786 138.84 316.086 138.44 317.286 137.64C317.506 137.5 317.726 137.43 317.946 137.43C318.226 137.43 318.456 137.54 318.636 137.76C318.816 137.98 318.906 138.24 318.906 138.54C318.906 139 318.706 139.39 318.306 139.71C317.766 140.15 317.016 140.51 316.056 140.79C315.116 141.07 314.166 141.21 313.206 141.21C311.766 141.21 310.506 140.92 309.426 140.34C308.346 139.76 307.506 138.93 306.906 137.85C306.326 136.77 306.036 135.52 306.036 134.1C306.036 132.52 306.336 131.12 306.936 129.9C307.556 128.66 308.416 127.7 309.516 127.02C310.616 126.34 311.886 126 313.326 126C315.326 126 316.856 126.6 317.916 127.8C318.996 128.98 319.536 130.7 319.536 132.96ZM313.446 128.22C312.226 128.22 311.256 128.58 310.536 129.3C309.816 130.02 309.356 131.07 309.156 132.45H316.896C316.936 131.07 316.646 130.02 316.026 129.3C315.426 128.58 314.566 128.22 313.446 128.22ZM331.155 126.06C331.535 126.02 331.835 126.1 332.055 126.3C332.295 126.5 332.415 126.79 332.415 127.17C332.415 128.09 331.915 128.59 330.915 128.67L330.105 128.76C328.725 128.9 327.695 129.3 327.015 129.96C326.355 130.62 325.975 131.59 325.875 132.87L325.305 139.71C325.265 140.21 325.095 140.58 324.795 140.82C324.495 141.04 324.125 141.15 323.685 141.15C323.245 141.15 322.885 141.03 322.605 140.79C322.345 140.55 322.235 140.19 322.275 139.71L323.265 127.44C323.285 127 323.455 126.66 323.775 126.42C324.095 126.18 324.465 126.06 324.885 126.06C325.285 126.06 325.605 126.18 325.845 126.42C326.085 126.64 326.195 126.97 326.175 127.41L326.085 128.64C327.085 127.1 328.665 126.25 330.825 126.09L331.155 126.06Z" fill="black"/>
</svg>
